<?xml version="1.0" encoding="utf-8"?>
<!-- Generator: Adobe Illustrator 27.8.1, SVG Export Plug-In . SVG Version: 6.00 Build 0)  -->
<svg version="1.1" id="Content" xmlns="http://www.w3.org/2000/svg" xmlns:xlink="http://www.w3.org/1999/xlink" x="0px" y="0px"
	 viewBox="0 0 238.9 50" style="enable-background:new 0 0 238.9 50;" xml:space="preserve">
<style type="text/css">
	.st0{fill:#FF582B;}
	.st1{fill:#002E69;}
</style>
<polygon class="st0" points="16.7,0 0,0 16.7,25 0,50 16.7,50 33.3,25 "/>
<path class="st1" d="M36.8,19.7L28.5,7.2L33.3,0H50L36.8,19.7z M28.5,42.8l4.8,7.2H50L36.8,30.3L28.5,42.8z"/>
<g>
	<path class="st1" d="M50,33.3V16.6h5.6c1.8,0,3.3,0.3,4.7,0.9c1.4,0.6,2.4,1.5,3.2,2.7c0.8,1.2,1.2,2.8,1.2,4.8
		c0,1.9-0.4,3.4-1.2,4.7c-0.8,1.2-1.8,2.2-3.2,2.7c-1.4,0.6-2.9,0.9-4.7,0.9H50z M52.4,31.1h3.1c2.1,0,3.7-0.5,4.9-1.5
		c1.2-1,1.7-2.5,1.7-4.6c0-2-0.6-3.6-1.7-4.7s-2.8-1.6-5-1.6h-3V31.1z"/>
	<path class="st1" d="M76.1,30.2l1.3,1.4c-0.2,0.2-0.5,0.5-0.9,0.8c-0.4,0.3-1,0.6-1.7,0.9c-0.7,0.3-1.5,0.4-2.5,0.4
		c-1.2,0-2.3-0.3-3.2-0.8c-0.9-0.5-1.6-1.3-2.1-2.2c-0.5-0.9-0.8-2-0.8-3.3c0-1.1,0.2-2.2,0.7-3.1c0.5-0.9,1.2-1.6,2-2.2
		c0.9-0.5,1.9-0.8,3-0.8c1.4,0,2.4,0.3,3.3,1c0.8,0.7,1.4,1.5,1.8,2.5c0.4,1,0.6,2.1,0.6,3.3h-9.2c0,0.7,0.2,1.3,0.5,1.8
		c0.3,0.5,0.8,1,1.4,1.3s1.2,0.5,1.9,0.5c1,0,1.8-0.2,2.4-0.5C75.4,30.9,75.8,30.5,76.1,30.2z M68.5,26.4h6.8
		c-0.1-0.9-0.4-1.7-1-2.3c-0.6-0.6-1.4-0.9-2.4-0.9c-0.7,0-1.3,0.2-1.8,0.5c-0.5,0.3-0.9,0.7-1.2,1.2C68.7,25.4,68.5,25.9,68.5,26.4
		z"/>
	<path class="st1" d="M81.8,33.3h-2.3V22.8c0-0.2,0-0.3,0-0.5c0-0.2,0-0.4,0-0.7h2.2l0.1,1.8c0.2-0.3,0.4-0.6,0.7-0.9
		c0.3-0.3,0.7-0.6,1.2-0.8c0.5-0.2,1.1-0.3,1.8-0.3c0.9,0,1.6,0.2,2.2,0.5c0.6,0.4,1.1,0.9,1.4,1.6c0.5-0.6,1-1,1.7-1.5
		c0.7-0.4,1.5-0.6,2.5-0.6c1.5,0,2.6,0.4,3.3,1.3c0.7,0.9,1.1,2.1,1.1,3.6v7h-2.3v-6.8c0-2.1-0.8-3.1-2.5-3.1
		c-0.6,0-1.2,0.2-1.6,0.5c-0.5,0.3-0.9,0.7-1.1,1.3c-0.3,0.5-0.4,1.1-0.4,1.7v6.5h-2.3v-6.8c0-1.1-0.2-1.9-0.6-2.4
		c-0.4-0.5-1-0.8-1.8-0.8c-0.8,0-1.5,0.2-2,0.7s-0.8,1-1,1.7c-0.2,0.7-0.3,1.4-0.3,2.2V33.3z"/>
	<path class="st1" d="M107.5,33.3l-0.1-1.4c-0.4,0.6-1,1-1.7,1.3c-0.7,0.3-1.5,0.4-2.2,0.4c-0.6,0-1.3-0.1-1.9-0.3
		c-0.6-0.2-1.1-0.6-1.5-1.2c-0.4-0.5-0.6-1.2-0.6-2.1c0-1.2,0.4-2.3,1.3-3c0.9-0.7,2.1-1.1,3.8-1.1c0.4,0,0.7,0,1.1,0
		c0.4,0,0.7,0.1,1.1,0.1c0.3,0,0.5,0,0.6,0.1v-0.4c0-0.9-0.3-1.5-0.8-1.9c-0.5-0.4-1.2-0.6-2.1-0.6c-0.9,0-1.6,0.1-2.1,0.4
		c-0.5,0.2-1,0.5-1.3,0.7l-1.1-1.5c0.4-0.3,1-0.7,1.7-1c0.7-0.3,1.7-0.5,3-0.5c1.5,0,2.7,0.4,3.5,1.1c0.9,0.7,1.3,1.8,1.3,3.1v6.8
		c0,0.1,0,0.3,0,0.4c0,0.2,0,0.4,0,0.6H107.5z M107.4,29.1v-1.3c-0.1,0-0.3-0.1-0.6-0.1c-0.3,0-0.6-0.1-1-0.1c-0.4,0-0.7,0-1.1,0
		c-0.8,0-1.5,0.1-1.9,0.4c-0.4,0.2-0.7,0.5-0.9,0.9c-0.2,0.4-0.2,0.7-0.2,1.1c0,0.6,0.2,1.1,0.7,1.4c0.4,0.3,1,0.5,1.8,0.5
		c0.6,0,1.1-0.1,1.6-0.4c0.5-0.3,0.9-0.6,1.2-1C107.3,30,107.4,29.6,107.4,29.1z"/>
	<path class="st1" d="M114.3,33.3H112V22.8c0-0.2,0-0.3,0-0.5c0-0.2,0-0.4,0-0.7h2.2l0.1,1.8c0.2-0.3,0.5-0.6,0.8-0.9
		c0.3-0.3,0.8-0.6,1.3-0.8c0.5-0.2,1.1-0.3,1.8-0.3c1.5,0,2.6,0.4,3.4,1.3c0.7,0.9,1.1,2.1,1.1,3.6v7h-2.2v-6.8
		c0-1.1-0.2-1.9-0.7-2.4c-0.5-0.5-1.1-0.8-2-0.8c-0.9,0-1.5,0.2-2,0.7c-0.5,0.4-0.9,1-1.1,1.7c-0.2,0.7-0.3,1.4-0.3,2.2V33.3z"/>
	<path class="st1" d="M133.4,33.3l-0.1-1.5c-0.1,0.1-0.3,0.3-0.6,0.6c-0.3,0.3-0.7,0.6-1.2,0.8c-0.5,0.2-1.2,0.4-1.9,0.4
		c-1,0-1.9-0.2-2.6-0.7c-0.8-0.5-1.4-1.2-1.9-2.1c-0.5-0.9-0.7-2-0.7-3.2c0-1.1,0.2-2,0.6-2.8c0.4-0.8,0.9-1.4,1.5-1.9
		c0.6-0.5,1.2-0.9,1.9-1.1c0.7-0.2,1.3-0.4,2-0.4c0.6,0,1.2,0.1,1.6,0.2c0.5,0.1,0.9,0.3,1.4,0.6v-5.5h2.2v15.5c0,0.1,0,0.2,0,0.5
		c0,0.2,0,0.5,0,0.7H133.4z M133.4,28.4v-4.1c-0.3-0.3-0.7-0.5-1.2-0.6c-0.5-0.2-1-0.3-1.7-0.3c-1.1,0-2,0.4-2.7,1.2
		c-0.7,0.8-1.1,1.8-1.1,3.1c0,0.7,0.1,1.4,0.4,2c0.2,0.6,0.6,1.1,1.1,1.5c0.5,0.4,1.1,0.5,1.9,0.5c0.8,0,1.4-0.2,1.9-0.5
		c0.5-0.4,0.8-0.8,1-1.3C133.3,29.3,133.4,28.8,133.4,28.4z"/>
	<path class="st1" d="M141.7,33.3V16.6h10.5v2.1h-8.1v4.8h6.1v2.2h-6.1v5.4h8.7v2.2H141.7z"/>
	<path class="st1" d="M153.4,33.3l4.5-6l-4.2-5.6h2.8l2.8,3.9l2.7-3.9h2.5l-4,5.5l4.6,6.2h-2.8l-3.2-4.4l-3.2,4.4H153.4z"/>
	<path class="st1" d="M174.2,30.2l1.4,1.5c-0.5,0.6-1.2,1.1-1.9,1.4c-0.8,0.4-1.6,0.5-2.6,0.5c-1.2,0-2.3-0.3-3.2-0.8
		c-0.9-0.5-1.6-1.3-2.1-2.2c-0.5-0.9-0.7-2-0.7-3.2c0-1.1,0.3-2.2,0.8-3.1c0.5-0.9,1.2-1.7,2.2-2.2c0.9-0.6,2-0.8,3.2-0.8
		c1,0,1.9,0.2,2.6,0.5c0.7,0.3,1.4,0.8,1.9,1.4l-1.5,1.4c-0.4-0.4-0.8-0.8-1.3-1c-0.5-0.2-1.1-0.4-1.8-0.4c-0.8,0-1.5,0.2-2.1,0.6
		c-0.6,0.4-1,0.9-1.3,1.5c-0.3,0.6-0.5,1.3-0.5,2.1c0,0.7,0.2,1.4,0.5,2c0.3,0.6,0.7,1.2,1.3,1.6c0.6,0.4,1.2,0.6,2,0.6
		c0.7,0,1.3-0.1,1.8-0.4C173.4,31,173.8,30.7,174.2,30.2z"/>
	<path class="st1" d="M177.1,33.3V16.6h2.2v6.8c0.2-0.3,0.5-0.6,0.8-0.9c0.3-0.3,0.7-0.6,1.2-0.8c0.5-0.2,1.1-0.3,1.8-0.3
		c1.5,0,2.6,0.4,3.4,1.3c0.7,0.9,1.1,2.1,1.1,3.6v7h-2.3v-6.8c0-1.1-0.2-1.9-0.7-2.4c-0.5-0.5-1.1-0.8-2-0.8c-0.9,0-1.5,0.2-2,0.7
		c-0.5,0.4-0.9,1-1.1,1.7c-0.2,0.7-0.3,1.4-0.3,2.2v5.4H177.1z"/>
	<path class="st1" d="M197.4,33.3l-0.1-1.4c-0.4,0.6-1,1-1.7,1.3c-0.7,0.3-1.5,0.4-2.2,0.4c-0.6,0-1.3-0.1-1.9-0.3
		c-0.6-0.2-1.1-0.6-1.5-1.2c-0.4-0.5-0.6-1.2-0.6-2.1c0-1.2,0.4-2.3,1.3-3c0.9-0.7,2.1-1.1,3.8-1.1c0.4,0,0.7,0,1.1,0
		c0.4,0,0.7,0.1,1.1,0.1c0.3,0,0.5,0,0.6,0.1v-0.4c0-0.9-0.3-1.5-0.8-1.9c-0.5-0.4-1.2-0.6-2.1-0.6c-0.9,0-1.6,0.1-2.1,0.4
		c-0.5,0.2-1,0.5-1.3,0.7l-1.1-1.5c0.4-0.3,1-0.7,1.7-1c0.7-0.3,1.7-0.5,3-0.5c1.5,0,2.7,0.4,3.5,1.1c0.9,0.7,1.3,1.8,1.3,3.1v6.8
		c0,0.1,0,0.3,0,0.4c0,0.2,0,0.4,0,0.6H197.4z M197.4,29.1v-1.3c-0.1,0-0.3-0.1-0.6-0.1c-0.3,0-0.6-0.1-1-0.1c-0.4,0-0.7,0-1.1,0
		c-0.8,0-1.5,0.1-1.9,0.4c-0.4,0.2-0.7,0.5-0.9,0.9c-0.2,0.4-0.2,0.7-0.2,1.1c0,0.6,0.2,1.1,0.7,1.4c0.4,0.3,1,0.5,1.8,0.5
		c0.6,0,1.1-0.1,1.6-0.4c0.5-0.3,0.9-0.6,1.2-1C197.2,30,197.4,29.6,197.4,29.1z"/>
	<path class="st1" d="M204.2,33.3H202V22.8c0-0.2,0-0.3,0-0.5c0-0.2,0-0.4,0-0.7h2.2l0.1,1.8c0.2-0.3,0.5-0.6,0.8-0.9
		c0.3-0.3,0.8-0.6,1.3-0.8c0.5-0.2,1.1-0.3,1.8-0.3c1.5,0,2.6,0.4,3.4,1.3c0.7,0.9,1.1,2.1,1.1,3.6v7h-2.2v-6.8
		c0-1.1-0.2-1.9-0.7-2.4c-0.5-0.5-1.1-0.8-2-0.8c-0.9,0-1.5,0.2-2,0.7c-0.5,0.4-0.9,1-1.1,1.7c-0.2,0.7-0.3,1.4-0.3,2.2V33.3z"/>
	<path class="st1" d="M215.4,37.3l1.1-1.6c0.4,0.3,0.9,0.5,1.4,0.7c0.6,0.2,1.2,0.3,2,0.3c1.1,0,2-0.3,2.5-0.9
		c0.6-0.6,0.8-1.4,0.8-2.4v-1.4c-0.2,0.1-0.4,0.3-0.7,0.6c-0.3,0.2-0.7,0.5-1.2,0.7c-0.5,0.2-1.1,0.3-1.8,0.3
		c-1.1,0-2.1-0.3-2.9-0.7c-0.8-0.5-1.4-1.2-1.8-2.1c-0.4-0.9-0.6-1.9-0.6-3c0-1.2,0.3-2.3,0.8-3.2c0.5-0.9,1.3-1.7,2.3-2.2
		c1-0.5,2.1-0.8,3.4-0.8c0.9,0,1.8,0.1,2.6,0.2c0.8,0.2,1.5,0.3,2,0.6v11.1c0,1.7-0.5,3-1.5,3.9c-1,0.9-2.3,1.4-4.1,1.4
		c-1.2,0-2.1-0.1-2.8-0.4C216.4,37.9,215.9,37.6,215.4,37.3z M223.3,28.5v-4.8c-0.1,0-0.4-0.1-0.8-0.2c-0.4-0.1-0.9-0.1-1.6-0.1
		c-0.9,0-1.6,0.2-2.2,0.5c-0.6,0.4-1.1,0.9-1.5,1.5c-0.4,0.6-0.5,1.4-0.5,2.2c0,0.7,0.1,1.3,0.3,1.9c0.2,0.6,0.6,1,1.1,1.4
		c0.5,0.3,1.1,0.5,1.9,0.5c0.7,0,1.4-0.1,1.8-0.4c0.5-0.3,0.8-0.6,1.1-1.1C223.2,29.5,223.3,29,223.3,28.5z"/>
	<path class="st1" d="M237.3,30.2l1.3,1.4c-0.2,0.2-0.5,0.5-0.9,0.8c-0.4,0.3-1,0.6-1.7,0.9c-0.7,0.3-1.5,0.4-2.5,0.4
		c-1.2,0-2.3-0.3-3.2-0.8c-0.9-0.5-1.6-1.3-2.1-2.2c-0.5-0.9-0.8-2-0.8-3.3c0-1.1,0.2-2.2,0.7-3.1c0.5-0.9,1.2-1.6,2-2.2
		c0.9-0.5,1.9-0.8,3-0.8c1.4,0,2.4,0.3,3.3,1c0.8,0.7,1.4,1.5,1.8,2.5c0.4,1,0.6,2.1,0.6,3.3h-9.2c0,0.7,0.2,1.3,0.5,1.8
		c0.3,0.5,0.8,1,1.4,1.3s1.2,0.5,1.9,0.5c1,0,1.8-0.2,2.4-0.5C236.6,30.9,237,30.5,237.3,30.2z M229.7,26.4h6.8
		c-0.1-0.9-0.4-1.7-1-2.3c-0.6-0.6-1.4-0.9-2.4-0.9c-0.7,0-1.3,0.2-1.8,0.5c-0.5,0.3-0.9,0.7-1.2,1.2
		C229.9,25.4,229.7,25.9,229.7,26.4z"/>
</g>
</svg>
