<svg xmlns="http://www.w3.org/2000/svg" width="1176" height="760" viewBox="0 0 1176 760"><rect width="100%" height="100%" fill="#000000"/><path fill="#FFF" d="M284.985 417.12h17.94v12.77h-55.2v-12.77h20.22v-58.16q0-3.45.21-7.11l-14.36 12.01q-1.24.96-2.45 1.2-1.2.25-2.27.04t-1.9-.73q-.83-.51-1.24-1.13l-5.38-7.39 30.42-25.87h14.01v87.14Zm80.04 0h17.94v12.77h-55.2v-12.77h20.22v-58.16q0-3.45.21-7.11l-14.36 12.01q-1.24.96-2.45 1.2-1.2.25-2.27.04t-1.9-.73q-.83-.51-1.24-1.13l-5.38-7.39 30.42-25.87h14.01v87.14Zm32.98-87h68.93v7.38q0 3.31-.69 5.35-.69 2.03-1.38 3.41l-37.81 77.83q-1.17 2.42-3.31 4.11-2.14 1.69-5.73 1.69h-12.35l38.57-76.25q1.31-2.34 2.59-4.31 1.28-1.96 2.86-3.76h-47.74q-1.59 0-2.76-1.17-1.18-1.17-1.18-2.76v-11.52Zm139.25 0-29.61 36.22-3.45 4.28q2.9-1.45 6.25-2.24 3.35-.8 7.21-.8 5.66 0 11 1.87 5.35 1.86 9.42 5.62t6.56 9.35q2.48 5.59 2.48 13.04 0 6.97-2.55 13.08-2.55 6.1-7.18 10.66-4.62 4.55-11.14 7.17-6.52 2.62-14.39 2.62-8 0-14.35-2.55t-10.83-7.14q-4.49-4.59-6.87-11.04-2.38-6.45-2.38-14.32 0-7.04 2.87-14.45 2.86-7.42 8.86-15.43l23.81-31.94q1.24-1.66 3.62-2.83 2.38-1.17 5.49-1.17h15.18Zm-25.74 86.94q4.07 0 7.48-1.38 3.42-1.38 5.87-3.87 2.45-2.48 3.83-5.83t1.38-7.28q0-4.28-1.31-7.69-1.31-3.42-3.73-5.8-2.41-2.38-5.79-3.62-3.38-1.24-7.46-1.24-4.07 0-7.38 1.38-3.31 1.38-5.66 3.83-2.34 2.45-3.65 5.79-1.31 3.35-1.31 7.21 0 4.14 1.13 7.56 1.14 3.41 3.38 5.83 2.25 2.41 5.56 3.76 3.31 1.35 7.66 1.35Zm146.28-10.01-9.04 8.9-23.39-23.39-23.6 23.53-9.04-8.9 23.6-23.67-22.49-22.49 8.97-8.97 22.49 22.49 22.36-22.35 9.1 8.97-22.42 22.42 23.46 23.46Zm47.4-76.93h68.93v7.38q0 3.31-.69 5.35-.69 2.03-1.38 3.41l-37.81 77.83q-1.17 2.42-3.31 4.11-2.14 1.69-5.73 1.69h-12.35l38.57-76.25q1.31-2.34 2.59-4.31 1.28-1.96 2.86-3.76h-47.75q-1.58 0-2.76-1.17-1.17-1.17-1.17-2.76v-11.52Zm139.24 0-29.6 36.22-3.45 4.28q2.9-1.45 6.25-2.24 3.34-.8 7.21-.8 5.66 0 11 1.87 5.35 1.86 9.42 5.62t6.56 9.35q2.48 5.59 2.48 13.04 0 6.97-2.55 13.08-2.56 6.1-7.18 10.66-4.62 4.55-11.14 7.17-6.52 2.62-14.39 2.62-8 0-14.35-2.55t-10.83-7.14q-4.49-4.59-6.87-11.04-2.38-6.45-2.38-14.32 0-7.04 2.86-14.45 2.87-7.42 8.87-15.43l23.81-31.94q1.24-1.66 3.62-2.83 2.38-1.17 5.48-1.17h15.18Zm-25.73 86.94q4.07 0 7.48-1.38 3.42-1.38 5.87-3.87 2.45-2.48 3.83-5.83t1.38-7.28q0-4.28-1.31-7.69-1.31-3.42-3.73-5.8-2.41-2.38-5.8-3.62-3.38-1.24-7.45-1.24t-7.38 1.38q-3.31 1.38-5.66 3.83-2.34 2.45-3.66 5.79-1.31 3.35-1.31 7.21 0 4.14 1.14 7.56 1.14 3.41 3.38 5.83 2.25 2.41 5.56 3.76 3.31 1.35 7.66 1.35ZM935.445 380q0 13.04-2.79 22.67-2.79 9.62-7.73 15.9-4.93 6.28-11.66 9.35-6.73 3.07-14.52 3.07-7.8 0-14.46-3.07-6.66-3.07-11.56-9.35-4.9-6.28-7.66-15.9-2.76-9.63-2.76-22.67 0-13.11 2.76-22.7t7.66-15.87q4.9-6.28 11.56-9.35 6.66-3.07 14.46-3.07 7.79 0 14.52 3.07 6.73 3.07 11.66 9.35 4.94 6.28 7.73 15.87t2.79 22.7Zm-17.59 0q0-10.83-1.59-17.94-1.58-7.1-4.24-11.31-2.66-4.21-6.11-5.9-3.45-1.69-7.17-1.69-3.66 0-7.08 1.69-3.41 1.69-6.03 5.9-2.63 4.21-4.18 11.31-1.55 7.11-1.55 17.94 0 10.84 1.55 17.94 1.55 7.11 4.18 11.32 2.62 4.21 6.03 5.9 3.42 1.69 7.08 1.69 3.72 0 7.17-1.69 3.45-1.69 6.11-5.9 2.66-4.21 4.24-11.32 1.59-7.1 1.59-17.94Z"/></svg>