<svg xmlns="http://www.w3.org/2000/svg" width="154" height="54" viewBox="0 0 154 54"><rect width="100%" height="100%" fill="#DDDDDD"/><path fill="#999999" d="M38.23 33.375h3.12v2.22h-9.6v-2.22h3.51v-10.12q0-.6.04-1.23l-2.5 2.09q-.21.16-.42.21-.21.04-.4 0-.18-.03-.33-.12-.14-.09-.21-.2l-.94-1.29 5.29-4.5h2.44v15.16Zm10.1-12.44-.61 3.61q.58-.12 1.1-.18.53-.05 1.02-.05 1.37 0 2.42.41 1.04.41 1.75 1.13t1.07 1.68q.36.97.36 2.08 0 1.38-.49 2.52-.49 1.14-1.35 1.95-.86.81-2.05 1.26-1.18.44-2.57.44-.82 0-1.55-.17-.73-.16-1.37-.45-.64-.28-1.19-.64-.55-.37-.98-.78l.91-1.26q.29-.41.76-.41.3 0 .61.2.31.19.72.42.4.22.94.42.55.19 1.32.19.81 0 1.44-.27.62-.26 1.04-.73.41-.48.62-1.13.21-.66.21-1.42 0-1.42-.82-2.22-.82-.8-2.43-.8-1.24 0-2.53.46l-1.85-.53 1.44-8.42h8.57v1.26q0 .63-.4 1.03t-1.34.4h-4.77Zm11.7 8.12h5.28v-5.68q0-.8.11-1.77l-5.39 7.45Zm7.86 0h2.19v1.72q0 .24-.16.41-.16.17-.44.17h-1.59v4.24h-2.58v-4.24h-7.32q-.3 0-.53-.18-.22-.19-.28-.46l-.32-1.5 8.22-10.98h2.81v10.82Zm21.25 2.57-1.57 1.55-4.07-4.07-4.1 4.09-1.57-1.55 4.1-4.11-3.91-3.92 1.56-1.56 3.91 3.92 3.89-3.89 1.58 1.56-3.9 3.9 4.08 4.08Zm12.62-10.69-.62 3.61q.58-.12 1.11-.18.53-.05 1.02-.05 1.37 0 2.41.41t1.75 1.13q.71.72 1.07 1.68.36.97.36 2.08 0 1.38-.49 2.52-.48 1.14-1.35 1.95-.86.81-2.04 1.26-1.18.44-2.58.44-.81 0-1.54-.17-.74-.16-1.38-.45-.64-.28-1.19-.64-.54-.37-.97-.78l.91-1.26q.29-.41.75-.41.3 0 .62.2.31.19.71.42.4.22.95.42.54.19 1.31.19.82 0 1.44-.27.63-.26 1.04-.73.41-.48.62-1.13.21-.66.21-1.42 0-1.42-.82-2.22-.82-.8-2.43-.8-1.23 0-2.53.46l-1.85-.53 1.44-8.42h8.57v1.26q0 .63-.4 1.03-.39.4-1.34.4h-4.76Zm11.7 8.12h5.28v-5.68q0-.8.1-1.77l-5.38 7.45Zm7.86 0h2.18v1.72q0 .24-.16.41-.15.17-.44.17h-1.58v4.24h-2.58v-4.24h-7.32q-.3 0-.53-.18-.23-.19-.29-.46l-.31-1.5 8.22-10.98h2.81v10.82Z"/></svg>