<svg xmlns="http://www.w3.org/2000/svg" width="340" height="480" viewBox="0 0 340 480"><rect width="100%" height="100%" fill="#DDDDDD"/><path fill="#999999" d="m72.89 233.315-2.92-.52q.33-2.34 1.3-4.1.97-1.77 2.42-2.95 1.45-1.18 3.33-1.78 1.88-.59 4.04-.59 2.25 0 4.06.64 1.81.64 3.09 1.77 1.29 1.14 1.97 2.67.69 1.53.69 3.31 0 1.55-.35 2.73t-1 2.06q-.65.88-1.62 1.49-.97.6-2.18 1.01 2.92.92 4.36 2.81 1.44 1.89 1.44 4.75 0 2.43-.9 4.3-.9 1.86-2.43 3.13-1.53 1.28-3.54 1.93-2.02.65-4.27.65-2.45 0-4.27-.56-1.82-.57-3.17-1.67-1.35-1.1-2.3-2.7-.95-1.6-1.62-3.69l2.45-1.01q.97-.4 1.81-.21.85.19 1.23.91.4.78.89 1.55.48.77 1.16 1.36.67.6 1.58.97t2.18.37q1.41 0 2.47-.46 1.06-.46 1.77-1.2.71-.75 1.05-1.66.35-.91.35-1.83 0-1.17-.24-2.13-.25-.95-1.04-1.63-.79-.67-2.26-1.06-1.48-.38-3.95-.38v-3.96q2.05-.02 3.4-.38t2.15-1q.8-.64 1.11-1.54.31-.9.31-1.99 0-2.29-1.28-3.48t-3.42-1.19q-.99 0-1.82.28-.83.28-1.5.78-.66.51-1.11 1.19-.45.67-.68 1.48-.38 1.03-1 1.37-.61.34-1.74.16Zm26.87 10.69h9.89v-10.64q0-1.51.21-3.33l-10.1 13.97Zm14.73 0h4.1v3.22q0 .45-.3.77-.29.33-.83.33h-2.97v7.94h-4.84v-7.94H95.93q-.56 0-.99-.35-.43-.35-.54-.87l-.58-2.81 15.41-20.59h5.26v20.3Zm30.22-4.01q0 4.26-.91 7.39-.91 3.14-2.52 5.19-1.61 2.05-3.8 3.05-2.2 1-4.74 1t-4.71-1q-2.18-1-3.77-3.05-1.6-2.05-2.5-5.19-.9-3.13-.9-7.39 0-4.27.9-7.4.9-3.13 2.5-5.17 1.59-2.05 3.77-3.05 2.17-1 4.71-1t4.74 1q2.19 1 3.8 3.05 1.61 2.04 2.52 5.17.91 3.13.91 7.4Zm-5.74 0q0-3.53-.52-5.85-.51-2.31-1.38-3.69-.87-1.37-1.99-1.92-1.13-.55-2.34-.55-1.19 0-2.31.55-1.11.55-1.97 1.92-.85 1.38-1.36 3.69-.5 2.32-.5 5.85 0 3.54.5 5.85.51 2.32 1.36 3.69.86 1.38 1.97 1.93 1.12.55 2.31.55 1.21 0 2.34-.55 1.12-.55 1.99-1.93.87-1.37 1.38-3.69.52-2.31.52-5.85Zm41.47 8.82-2.95 2.91-7.63-7.63-7.69 7.67-2.95-2.9 7.7-7.72-7.34-7.33 2.93-2.93 7.33 7.34 7.29-7.29 2.97 2.92-7.31 7.31 7.65 7.65Zm19.48-4.81h9.9v-10.64q0-1.51.21-3.33l-10.11 13.97Zm14.74 0h4.1v3.22q0 .45-.3.77-.29.33-.83.33h-2.97v7.94h-4.84v-7.94H196.1q-.56 0-.99-.35-.43-.35-.54-.87l-.59-2.81 15.42-20.59h5.26v20.3Zm18.29 8.28q1.38 0 2.41-.4 1.04-.39 1.75-1.09.7-.7 1.06-1.66.36-.97.36-2.09 0-2.68-1.48-4.06-1.49-1.37-4.1-1.37-2.61 0-4.09 1.37-1.49 1.38-1.49 4.06 0 1.12.36 2.09.36.96 1.07 1.66.71.7 1.75 1.09 1.03.4 2.4.4Zm0-24.73q-1.23 0-2.13.38-.9.38-1.5 1.03-.6.64-.88 1.47t-.28 1.76q0 .96.24 1.87.23.91.8 1.62.56.71 1.48 1.14.92.43 2.27.43t2.28-.43q.92-.43 1.48-1.14.56-.71.8-1.62.24-.91.24-1.87 0-.93-.3-1.76-.29-.83-.87-1.47-.59-.65-1.49-1.03t-2.14-.38Zm5.49 11.75q2.97.96 4.39 2.95 1.42 2 1.42 4.88 0 2.16-.82 3.91-.82 1.76-2.31 2.99-1.48 1.24-3.56 1.91-2.09.68-4.61.68-2.52 0-4.6-.68-2.08-.67-3.56-1.91-1.49-1.23-2.31-2.99-.82-1.75-.82-3.91 0-2.88 1.42-4.88 1.41-1.99 4.38-2.95-2.36-.99-3.54-2.82-1.18-1.82-1.18-4.38 0-1.85.75-3.45.76-1.59 2.11-2.78 1.35-1.18 3.23-1.84 1.87-.66 4.12-.66t4.13.66q1.88.66 3.23 1.84 1.35 1.19 2.11 2.78.75 1.6.75 3.45 0 2.56-1.18 4.38-1.18 1.83-3.55 2.82Zm32.54.69q0 4.26-.91 7.39-.91 3.14-2.52 5.19-1.61 2.05-3.8 3.05-2.2 1-4.74 1t-4.71-1q-2.18-1-3.77-3.05-1.6-2.05-2.5-5.19-.9-3.13-.9-7.39 0-4.27.9-7.4.9-3.13 2.5-5.17 1.59-2.05 3.77-3.05 2.17-1 4.71-1t4.74 1q2.19 1 3.8 3.05 1.61 2.04 2.52 5.17.91 3.13.91 7.4Zm-5.74 0q0-3.53-.52-5.85-.51-2.31-1.38-3.69-.87-1.37-1.99-1.92-1.13-.55-2.34-.55-1.19 0-2.31.55-1.11.55-1.97 1.92-.85 1.38-1.36 3.69-.5 2.32-.5 5.85 0 3.54.5 5.85.51 2.32 1.36 3.69.86 1.38 1.97 1.93 1.12.55 2.31.55 1.21 0 2.34-.55 1.12-.55 1.99-1.93.87-1.37 1.38-3.69.52-2.31.52-5.85Z"/></svg>