<svg xmlns="http://www.w3.org/2000/svg" width="588" height="380" viewBox="0 0 588 380"><rect width="100%" height="100%" fill="#000000"/><path fill="#FFF" d="m133.81 170.54-1.99 11.74q1.87-.39 3.59-.56 1.71-.18 3.31-.18 4.45 0 7.84 1.33 3.39 1.32 5.7 3.66 2.3 2.34 3.47 5.48 1.17 3.14 1.17 6.77 0 4.48-1.58 8.19-1.58 3.7-4.39 6.34-2.81 2.63-6.65 4.07-3.84 1.44-8.37 1.44-2.65 0-5.03-.54-2.38-.55-4.46-1.46-2.09-.92-3.86-2.11-1.78-1.19-3.18-2.52l2.96-4.09q.94-1.33 2.46-1.33.97 0 1.99.63 1.01.62 2.32 1.36 1.31.74 3.08 1.37 1.78.62 4.27.62 2.65 0 4.68-.86 2.03-.85 3.37-2.4 1.35-1.54 2.03-3.66.68-2.13.68-4.62 0-4.6-2.67-7.2-2.67-2.59-7.89-2.59-4.02 0-8.23 1.48l-6.01-1.72 4.68-27.37h27.85v4.09q0 2.07-1.29 3.35-1.29 1.29-4.37 1.29h-15.48Zm50.04 40.76q2.37 0 4.17-.69 1.79-.68 3.02-1.89t1.85-2.88q.63-1.68.63-3.63 0-4.64-2.58-7.02-2.57-2.38-7.09-2.38-4.53 0-7.1 2.38-2.58 2.38-2.58 7.02 0 1.95.63 3.63.62 1.67 1.85 2.88t3.02 1.89q1.8.69 4.18.69Zm0-42.86q-2.15 0-3.71.66t-2.59 1.77q-1.04 1.11-1.52 2.56-.49 1.44-.49 3.04 0 1.68.41 3.26.41 1.58 1.38 2.8.98 1.23 2.58 1.97 1.6.75 3.94.75t3.93-.75q1.6-.74 2.58-1.97.97-1.22 1.38-2.8.41-1.58.41-3.26 0-1.6-.5-3.04-.51-1.45-1.53-2.56-1.01-1.11-2.57-1.77-1.56-.66-3.7-.66Zm9.51 20.35q5.15 1.68 7.61 5.13 2.45 3.45 2.45 8.45 0 3.74-1.42 6.78t-4 5.19q-2.57 2.14-6.18 3.31t-7.97 1.17q-4.37 0-7.98-1.17-3.61-1.17-6.18-3.31-2.58-2.15-4-5.19-1.42-3.04-1.42-6.78 0-5 2.45-8.45 2.46-3.45 7.61-5.13-4.1-1.71-6.14-4.87-2.05-3.16-2.05-7.61 0-3.19 1.31-5.96 1.3-2.77 3.64-4.82 2.34-2.05 5.6-3.2 3.26-1.15 7.16-1.15 3.9 0 7.15 1.15 3.26 1.15 5.6 3.2 2.34 2.05 3.65 4.82 1.3 2.77 1.3 5.96 0 4.45-2.05 7.61-2.04 3.16-6.14 4.87Zm35.73 22.51q2.38 0 4.17-.69 1.79-.68 3.02-1.89t1.85-2.88q.63-1.68.63-3.63 0-4.64-2.58-7.02-2.57-2.38-7.09-2.38-4.53 0-7.1 2.38-2.58 2.38-2.58 7.02 0 1.95.63 3.63.62 1.67 1.85 2.88t3.02 1.89q1.8.69 4.18.69Zm0-42.86q-2.15 0-3.71.66t-2.59 1.77q-1.04 1.11-1.52 2.56-.49 1.44-.49 3.04 0 1.68.41 3.26.41 1.58 1.38 2.8.98 1.23 2.58 1.97 1.6.75 3.94.75t3.94-.75q1.59-.74 2.57-1.97.97-1.22 1.38-2.8.41-1.58.41-3.26 0-1.6-.5-3.04-.51-1.45-1.52-2.56-1.02-1.11-2.58-1.77-1.56-.66-3.7-.66Zm9.51 20.35q5.15 1.68 7.61 5.13 2.45 3.45 2.45 8.45 0 3.74-1.42 6.78t-4 5.19q-2.57 2.14-6.18 3.31t-7.97 1.17q-4.37 0-7.98-1.17-3.61-1.17-6.18-3.31-2.57-2.15-4-5.19-1.42-3.04-1.42-6.78 0-5 2.46-8.45 2.45-3.45 7.6-5.13-4.09-1.71-6.14-4.87t-2.05-7.61q0-3.19 1.31-5.96 1.3-2.77 3.64-4.82 2.34-2.05 5.6-3.2 3.26-1.15 7.16-1.15 3.9 0 7.15 1.15 3.26 1.15 5.6 3.2 2.34 2.05 3.65 4.82 1.3 2.77 1.3 5.96 0 4.45-2.05 7.61-2.04 3.16-6.14 4.87Zm73.09 16.5-5.11 5.03-13.22-13.22-13.34 13.3-5.11-5.03 13.34-13.38-12.71-12.71 5.07-5.07 12.71 12.71 12.64-12.63 5.14 5.07-12.67 12.67 13.26 13.26Zm32.45-26.87-5.07-.9q.58-4.05 2.26-7.11 1.68-3.07 4.19-5.11 2.52-2.05 5.77-3.08 3.26-1.04 7-1.04 3.9 0 7.04 1.11t5.37 3.08q2.22 1.97 3.41 4.63 1.19 2.65 1.19 5.73 0 2.69-.61 4.74-.6 2.04-1.73 3.57-1.13 1.52-2.81 2.57-1.68 1.05-3.78 1.75 5.07 1.6 7.56 4.88 2.5 3.28 2.5 8.23 0 4.21-1.56 7.45t-4.21 5.44q-2.66 2.2-6.15 3.33t-7.39 1.13q-4.25 0-7.41-.97-3.16-.98-5.5-2.89-2.34-1.91-3.97-4.68-1.64-2.77-2.81-6.39l4.25-1.76q1.68-.7 3.14-.37 1.46.33 2.12 1.58.71 1.37 1.54 2.69.84 1.33 2.01 2.36 1.17 1.03 2.75 1.68 1.58.64 3.77.64 2.45 0 4.29-.8 1.83-.8 3.06-2.08 1.23-1.29 1.83-2.87.61-1.58.61-3.18 0-2.03-.43-3.68-.43-1.66-1.8-2.83-1.36-1.17-3.92-1.84-2.55-.66-6.84-.66v-6.86q3.55-.04 5.89-.66 2.34-.63 3.72-1.74 1.39-1.11 1.93-2.67.55-1.56.55-3.43 0-3.98-2.22-6.05-2.23-2.07-5.93-2.07-1.72 0-3.16.49-1.44.49-2.6 1.37-1.15.87-1.93 2.04t-1.17 2.58q-.66 1.79-1.73 2.38-1.07.58-3.02.27Zm58.57 32.88q2.38 0 4.18-.69 1.79-.68 3.02-1.89t1.85-2.88q.63-1.68.63-3.63 0-4.64-2.58-7.02-2.57-2.38-7.1-2.38-4.52 0-7.09 2.38-2.58 2.38-2.58 7.02 0 1.95.63 3.63.62 1.67 1.85 2.88t3.02 1.89q1.8.69 4.17.69Zm0-42.86q-2.14 0-3.7.66t-2.59 1.77q-1.04 1.11-1.53 2.56-.48 1.44-.48 3.04 0 1.68.41 3.26.41 1.58 1.38 2.8.98 1.23 2.58 1.97 1.59.75 3.93.75t3.94-.75q1.6-.74 2.58-1.97.97-1.22 1.38-2.8.41-1.58.41-3.26 0-1.6-.51-3.04-.5-1.45-1.52-2.56-1.01-1.11-2.57-1.77-1.56-.66-3.71-.66Zm9.52 20.35q5.15 1.68 7.61 5.13 2.45 3.45 2.45 8.45 0 3.74-1.42 6.78t-4 5.19q-2.57 2.14-6.18 3.31t-7.98 1.17q-4.36 0-7.97-1.17-3.61-1.17-6.18-3.31-2.58-2.15-4-5.19-1.42-3.04-1.42-6.78 0-5 2.45-8.45 2.46-3.45 7.61-5.13-4.1-1.71-6.14-4.87-2.05-3.16-2.05-7.61 0-3.19 1.3-5.96 1.31-2.77 3.65-4.82 2.34-2.05 5.6-3.2 3.25-1.15 7.15-1.15 3.9 0 7.16 1.15 3.26 1.15 5.6 3.2 2.34 2.05 3.64 4.82 1.31 2.77 1.31 5.96 0 4.45-2.05 7.61-2.04 3.16-6.14 4.87Zm56.39 1.21q0 7.37-1.58 12.81-1.57 5.44-4.36 8.99t-6.59 5.29q-3.81 1.73-8.21 1.73-4.41 0-8.17-1.73-3.77-1.74-6.54-5.29t-4.33-8.99q-1.56-5.44-1.56-12.81 0-7.41 1.56-12.83t4.33-8.97q2.77-3.55 6.54-5.28 3.76-1.74 8.17-1.74 4.4 0 8.21 1.74 3.8 1.73 6.59 5.28 2.79 3.55 4.36 8.97 1.58 5.42 1.58 12.83Zm-9.94 0q0-6.12-.9-10.14-.89-4.01-2.4-6.39-1.5-2.38-3.45-3.34-1.95-.95-4.05-.95-2.07 0-4 .95-1.93.96-3.41 3.34-1.49 2.38-2.36 6.39-.88 4.02-.88 10.14 0 6.13.88 10.14.87 4.02 2.36 6.4 1.48 2.38 3.41 3.33 1.93.96 4 .96 2.1 0 4.05-.96 1.95-.95 3.45-3.33 1.51-2.38 2.4-6.4.9-4.01.9-10.14Z"/></svg>