<svg xmlns="http://www.w3.org/2000/svg" width="680" height="960" viewBox="0 0 680 960"><rect width="100%" height="100%" fill="#000000"/><path fill="#FFF" d="m177.465 447.465-19.31 23.62-2.25 2.79q1.89-.94 4.07-1.46 2.19-.51 4.7-.51 3.69 0 7.18 1.21 3.49 1.22 6.15 3.67 2.65 2.45 4.27 6.1 1.62 3.64 1.62 8.5 0 4.54-1.66 8.53-1.67 3.98-4.69 6.95-3.01 2.97-7.26 4.68-4.25 1.71-9.38 1.71-5.23 0-9.36-1.66-4.14-1.67-7.07-4.66-2.93-2.99-4.48-7.2-1.55-4.21-1.55-9.34 0-4.59 1.87-9.43 1.86-4.84 5.78-10.06l15.52-20.83q.81-1.08 2.37-1.84 1.55-.77 3.57-.77h9.91Zm-16.79 56.7q2.65 0 4.88-.9t3.83-2.52q1.6-1.62 2.5-3.8.9-2.18.9-4.75 0-2.79-.86-5.02-.85-2.22-2.43-3.78-1.57-1.55-3.78-2.36-2.2-.81-4.86-.81-2.65 0-4.81.9-2.16.9-3.69 2.5-1.53 1.6-2.39 3.78-.86 2.18-.86 4.7 0 2.7.75 4.93.74 2.22 2.2 3.8 1.46 1.57 3.62 2.45 2.17.88 5 .88Zm52.29.41q2.74 0 4.81-.79 2.07-.79 3.49-2.18 1.42-1.4 2.14-3.33.72-1.94.72-4.19 0-5.35-2.97-8.1-2.97-2.74-8.19-2.74-5.22 0-8.19 2.74-2.97 2.75-2.97 8.1 0 2.25.72 4.19.72 1.93 2.14 3.33 1.41 1.39 3.48 2.18 2.07.79 4.82.79Zm0-49.46q-2.48 0-4.28.76-1.79.77-2.99 2.05-1.19 1.29-1.75 2.95-.57 1.67-.57 3.51 0 1.94.48 3.76.47 1.82 1.6 3.24 1.12 1.42 2.97 2.27 1.84.86 4.54.86t4.54-.86q1.85-.85 2.98-2.27 1.12-1.42 1.59-3.24.47-1.82.47-3.76 0-1.84-.58-3.51-.59-1.66-1.76-2.95-1.17-1.28-2.97-2.05-1.8-.76-4.27-.76Zm10.98 23.49q5.94 1.94 8.77 5.92 2.84 3.98 2.84 9.74 0 4.32-1.64 7.83-1.65 3.51-4.62 5.98-2.97 2.48-7.13 3.83t-9.2 1.35q-5.04 0-9.2-1.35-4.16-1.35-7.14-3.83-2.97-2.47-4.61-5.98-1.64-3.51-1.64-7.83 0-5.76 2.83-9.74 2.84-3.98 8.78-5.92-4.72-1.98-7.09-5.62-2.36-3.65-2.36-8.78 0-3.69 1.51-6.88 1.5-3.2 4.2-5.56 2.71-2.36 6.46-3.69 3.76-1.33 8.26-1.33t8.26 1.33q3.76 1.33 6.45 3.69 2.7 2.36 4.21 5.56 1.51 3.19 1.51 6.88 0 5.13-2.36 8.78-2.36 3.64-7.09 5.62Zm65.07 1.4q0 8.5-1.82 14.78-1.83 6.28-5.04 10.37-3.22 4.1-7.61 6.1-4.39 2-9.47 2-5.09 0-9.43-2t-7.54-6.1q-3.19-4.09-4.99-10.37-1.8-6.28-1.8-14.78 0-8.56 1.8-14.81t4.99-10.35q3.2-4.09 7.54-6.1 4.34-2 9.43-2 5.08 0 9.47 2 4.39 2.01 7.61 6.1 3.21 4.1 5.04 10.35 1.82 6.25 1.82 14.81Zm-11.48 0q0-7.07-1.03-11.7-1.04-4.64-2.77-7.38-1.73-2.75-3.98-3.85t-4.68-1.1q-2.39 0-4.61 1.1-2.23 1.1-3.94 3.85-1.71 2.74-2.72 7.38-1.02 4.63-1.02 11.7 0 7.06 1.02 11.69 1.01 4.64 2.72 7.38 1.71 2.75 3.94 3.85 2.22 1.11 4.61 1.11 2.43 0 4.68-1.11 2.25-1.1 3.98-3.85 1.73-2.74 2.77-7.38 1.03-4.63 1.03-11.69Zm82.94 17.64-5.9 5.8-15.25-15.25-15.39 15.34-5.9-5.8 15.39-15.44-14.67-14.67 5.85-5.85 14.67 14.67 14.58-14.58 5.94 5.85-14.62 14.62 15.3 15.31Zm41.58-30.65q0 5.45 2.81 8.3 2.81 2.86 7.99 2.86 2.7 0 4.81-.85 2.12-.86 3.56-2.34 1.44-1.49 2.18-3.52.74-2.02.74-4.36 0-2.65-.81-4.75-.81-2.09-2.29-3.53-1.49-1.44-3.53-2.2-2.05-.77-4.48-.77-2.52 0-4.55.83-2.02.84-3.46 2.32-1.44 1.49-2.21 3.53-.76 2.05-.76 4.48Zm-5.45 45.54 20.21-25.24q.76-.95 1.44-1.85.67-.9 1.3-1.8-2.25 1.44-4.95 2.18-2.7.75-5.67.75-3.37 0-6.61-1.17t-5.76-3.54q-2.52-2.36-4.07-5.85-1.56-3.48-1.56-8.16 0-4.37 1.62-8.2 1.62-3.82 4.55-6.7 2.92-2.88 7.02-4.55 4.09-1.66 9.04-1.66 5 0 8.98 1.57 3.98 1.58 6.8 4.42 2.81 2.83 4.32 6.79 1.5 3.96 1.5 8.69 0 3.01-.51 5.71-.52 2.7-1.47 5.2-.94 2.5-2.29 4.88-1.35 2.39-3.02 4.73l-14.89 21.24q-.77 1.08-2.3 1.82-1.53.74-3.46.74h-10.22Zm85.59-65.07-19.3 23.62-2.25 2.79q1.89-.94 4.07-1.46 2.18-.51 4.7-.51 3.69 0 7.18 1.21 3.49 1.22 6.14 3.67 2.66 2.45 4.28 6.1 1.62 3.64 1.62 8.5 0 4.54-1.67 8.53-1.66 3.98-4.68 6.95-3.01 2.97-7.26 4.68-4.26 1.71-9.39 1.71-5.22 0-9.36-1.66-4.14-1.67-7.06-4.66-2.93-2.99-4.48-7.2-1.55-4.21-1.55-9.34 0-4.59 1.87-9.43 1.86-4.84 5.78-10.06l15.52-20.83q.81-1.08 2.37-1.84 1.55-.77 3.57-.77h9.9Zm-16.78 56.7q2.65 0 4.88-.9t3.83-2.52q1.59-1.62 2.49-3.8.9-2.18.9-4.75 0-2.79-.85-5.02-.86-2.22-2.43-3.78-1.58-1.55-3.78-2.36-2.21-.81-4.86-.81-2.66 0-4.82.9t-3.69 2.5q-1.53 1.6-2.38 3.78-.86 2.18-.86 4.7 0 2.7.75 4.93.74 2.22 2.2 3.8 1.46 1.57 3.62 2.45 2.16.88 5 .88Zm76.14-24.16q0 8.5-1.82 14.78-1.83 6.28-5.04 10.37-3.22 4.1-7.61 6.1-4.39 2-9.47 2-5.09 0-9.43-2t-7.54-6.1q-3.19-4.09-4.99-10.37-1.8-6.28-1.8-14.78 0-8.56 1.8-14.81t4.99-10.35q3.2-4.09 7.54-6.1 4.34-2 9.43-2 5.08 0 9.47 2 4.39 2.01 7.61 6.1 3.21 4.1 5.04 10.35 1.82 6.25 1.82 14.81Zm-11.48 0q0-7.07-1.03-11.7-1.04-4.64-2.77-7.38-1.73-2.75-3.98-3.85t-4.68-1.1q-2.39 0-4.61 1.1-2.23 1.1-3.94 3.85-1.71 2.74-2.72 7.38-1.02 4.63-1.02 11.7 0 7.06 1.02 11.69 1.01 4.64 2.72 7.38 1.71 2.75 3.94 3.85 2.22 1.11 4.61 1.11 2.43 0 4.68-1.11 2.25-1.1 3.98-3.85 1.73-2.74 2.77-7.38 1.03-4.63 1.03-11.69Z"/></svg>