<svg xmlns="http://www.w3.org/2000/svg" width="100" height="100" viewBox="0 0 100 100"><rect width="100%" height="100%" fill="#ffffff"/><path fill="#222" d="M21.355 45.18h4.09v16.93h-4.09V45.18Zm4.65-4.93q0 .53-.22.99-.21.46-.56.81-.36.34-.84.55-.48.21-1.02.21-.53 0-1-.21t-.82-.55q-.34-.35-.55-.81-.21-.46-.21-.99 0-.55.21-1.03.21-.47.55-.82.35-.35.82-.55.47-.21 1-.21.54 0 1.02.21.48.2.84.55.35.35.56.82.22.48.22 1.03Zm16.8 7.03-1.08 1.48q-.18.23-.35.36-.17.14-.5.14-.32 0-.62-.19-.29-.19-.7-.43-.42-.24-.99-.43-.57-.19-1.41-.19-1.07 0-1.88.39-.81.38-1.34 1.11-.54.73-.8 1.76-.27 1.03-.27 2.33 0 1.36.29 2.41.29 1.06.83 1.78.55.71 1.32 1.08.78.38 1.75.38.98 0 1.58-.24.6-.24 1.01-.53.42-.29.72-.53.31-.24.69-.24.49 0 .74.38l1.17 1.49q-.68.79-1.47 1.32-.79.54-1.64.86-.85.32-1.75.46-.9.13-1.79.13-1.57 0-2.95-.59-1.39-.58-2.43-1.71-1.04-1.12-1.64-2.74-.6-1.63-.6-3.71 0-1.86.53-3.45.54-1.6 1.58-2.76 1.04-1.16 2.57-1.82 1.54-.66 3.54-.66 1.89 0 3.32.61t2.57 1.75Zm10.19-2.36q1.88 0 3.43.61 1.54.61 2.64 1.73 1.09 1.12 1.69 2.74.59 1.62.59 3.61 0 2.02-.59 3.63-.6 1.62-1.69 2.76-1.1 1.14-2.64 1.75-1.55.61-3.43.61-1.89 0-3.45-.61-1.55-.61-2.64-1.75-1.1-1.14-1.7-2.76-.61-1.61-.61-3.63 0-1.99.61-3.61.6-1.62 1.7-2.74 1.09-1.12 2.64-1.73 1.56-.61 3.45-.61Zm0 14.3q2.11 0 3.13-1.42 1.01-1.42 1.01-4.15 0-2.74-1.01-4.18-1.02-1.43-3.13-1.43-2.14 0-3.17 1.44-1.03 1.44-1.03 4.17 0 2.72 1.03 4.15 1.03 1.42 3.17 1.42Zm15-13.3.28 1.34q.51-.51 1.08-.95.57-.44 1.21-.74.63-.31 1.36-.48.72-.17 1.58-.17 1.39 0 2.46.47t1.79 1.32q.72.85 1.09 2.03.37 1.18.37 2.6v10.77h-4.07V51.34q0-1.56-.71-2.41-.71-.85-2.17-.85-1.05 0-1.98.48-.92.48-1.74 1.31v12.24h-4.08V45.18h2.49q.79 0 1.04.74Z"/></svg>